%TF.GenerationSoftware,KiCad,Pcbnew,(5.1.10-1-10_14)*%
%TF.CreationDate,2022-02-21T01:09:15+09:00*%
%TF.ProjectId,SS60,53533630-2e6b-4696-9361-645f70636258,rev?*%
%TF.SameCoordinates,Original*%
%TF.FileFunction,Legend,Top*%
%TF.FilePolarity,Positive*%
%FSLAX46Y46*%
G04 Gerber Fmt 4.6, Leading zero omitted, Abs format (unit mm)*
G04 Created by KiCad (PCBNEW (5.1.10-1-10_14)) date 2022-02-21 01:09:15*
%MOMM*%
%LPD*%
G01*
G04 APERTURE LIST*
%ADD10C,0.120000*%
%ADD11C,0.150000*%
G04 APERTURE END LIST*
D10*
%TO.C,D1*%
X118070000Y-71120000D02*
G75*
G03*
X118070000Y-71120000I-2500000J0D01*
G01*
X117115000Y-68560000D02*
X114025000Y-68560000D01*
X115569538Y-74110000D02*
G75*
G03*
X117114830Y-68560000I462J2990000D01*
G01*
X115570462Y-74110000D02*
G75*
G02*
X114025170Y-68560000I-462J2990000D01*
G01*
%TO.C,J1*%
X119825001Y-106025001D02*
X149825001Y-106025001D01*
X149825001Y-95525001D02*
X119825001Y-95525001D01*
X149825001Y-106025001D02*
G75*
G03*
X149825001Y-95525001I0J5250000D01*
G01*
X119825001Y-95525001D02*
G75*
G03*
X119825001Y-106025001I0J-5250000D01*
G01*
%TO.C,R1*%
X116940000Y-88900000D02*
G75*
G03*
X116940000Y-88900000I-1370000J0D01*
G01*
X116940000Y-88900000D02*
X117010000Y-88900000D01*
%TO.C,R2*%
X149860000Y-74830000D02*
X149860000Y-74760000D01*
X151230000Y-76200000D02*
G75*
G03*
X151230000Y-76200000I-1370000J0D01*
G01*
%TO.C,U1*%
X128210000Y-74660000D02*
X128210000Y-76310000D01*
X128210000Y-76310000D02*
X138490000Y-76310000D01*
X138490000Y-76310000D02*
X138490000Y-71010000D01*
X138490000Y-71010000D02*
X128210000Y-71010000D01*
X128210000Y-71010000D02*
X128210000Y-72660000D01*
X128210000Y-72660000D02*
G75*
G02*
X128210000Y-74660000I0J-1000000D01*
G01*
%TO.C,D1*%
D11*
X119982380Y-71858095D02*
X118982380Y-71858095D01*
X118982380Y-71620000D01*
X119030000Y-71477142D01*
X119125238Y-71381904D01*
X119220476Y-71334285D01*
X119410952Y-71286666D01*
X119553809Y-71286666D01*
X119744285Y-71334285D01*
X119839523Y-71381904D01*
X119934761Y-71477142D01*
X119982380Y-71620000D01*
X119982380Y-71858095D01*
X119982380Y-70334285D02*
X119982380Y-70905714D01*
X119982380Y-70620000D02*
X118982380Y-70620000D01*
X119125238Y-70715238D01*
X119220476Y-70810476D01*
X119268095Y-70905714D01*
%TO.C,J1*%
X127241667Y-93977381D02*
X127241667Y-94691667D01*
X127194048Y-94834524D01*
X127098810Y-94929762D01*
X126955953Y-94977381D01*
X126860715Y-94977381D01*
X128241667Y-94977381D02*
X127670239Y-94977381D01*
X127955953Y-94977381D02*
X127955953Y-93977381D01*
X127860715Y-94120239D01*
X127765477Y-94215477D01*
X127670239Y-94263096D01*
%TO.C,R1*%
X116673333Y-86982380D02*
X116340000Y-86506190D01*
X116101904Y-86982380D02*
X116101904Y-85982380D01*
X116482857Y-85982380D01*
X116578095Y-86030000D01*
X116625714Y-86077619D01*
X116673333Y-86172857D01*
X116673333Y-86315714D01*
X116625714Y-86410952D01*
X116578095Y-86458571D01*
X116482857Y-86506190D01*
X116101904Y-86506190D01*
X117625714Y-86982380D02*
X117054285Y-86982380D01*
X117340000Y-86982380D02*
X117340000Y-85982380D01*
X117244761Y-86125238D01*
X117149523Y-86220476D01*
X117054285Y-86268095D01*
%TO.C,R2*%
X147942380Y-75096666D02*
X147466190Y-75430000D01*
X147942380Y-75668095D02*
X146942380Y-75668095D01*
X146942380Y-75287142D01*
X146990000Y-75191904D01*
X147037619Y-75144285D01*
X147132857Y-75096666D01*
X147275714Y-75096666D01*
X147370952Y-75144285D01*
X147418571Y-75191904D01*
X147466190Y-75287142D01*
X147466190Y-75668095D01*
X147037619Y-74715714D02*
X146990000Y-74668095D01*
X146942380Y-74572857D01*
X146942380Y-74334761D01*
X146990000Y-74239523D01*
X147037619Y-74191904D01*
X147132857Y-74144285D01*
X147228095Y-74144285D01*
X147370952Y-74191904D01*
X147942380Y-74763333D01*
X147942380Y-74144285D01*
%TO.C,U1*%
X126662380Y-74421904D02*
X127471904Y-74421904D01*
X127567142Y-74374285D01*
X127614761Y-74326666D01*
X127662380Y-74231428D01*
X127662380Y-74040952D01*
X127614761Y-73945714D01*
X127567142Y-73898095D01*
X127471904Y-73850476D01*
X126662380Y-73850476D01*
X127662380Y-72850476D02*
X127662380Y-73421904D01*
X127662380Y-73136190D02*
X126662380Y-73136190D01*
X126805238Y-73231428D01*
X126900476Y-73326666D01*
X126948095Y-73421904D01*
%TD*%
M02*
